<svg xmlns="http://www.w3.org/2000/svg" viewBox="0 0 920 640" width="920" height="640">
  <defs>
    <filter id="shadow" x="-5%" y="-5%" width="110%" height="115%">
      <feDropShadow dx="0" dy="2" stdDeviation="4" flood-color="#312e8120"/>
    </filter>
    <linearGradient id="heroGrad" x1="0%" y1="0%" x2="100%" y2="0%">
      <stop offset="0%" stop-color="#eef2ff"/>
      <stop offset="100%" stop-color="#ede9fe"/>
    </linearGradient>
  </defs>
  <rect width="100%" height="100%" fill="#ffffff"/><text x="40" y="48" font-family="Inter,Segoe UI,sans-serif" font-size="32" font-weight="700" fill="#312e81">Fable Mode</text><text x="40" y="78" font-family="Inter,Segoe UI,sans-serif" font-size="18" fill="#4f46e5">Plan in chapters. Prove each scene before the next.</text><rect x="40" y="100" width="840" height="4" rx="2" fill="url(#heroGrad)"/><text x="40" y="130" font-family="Inter,Segoe UI,sans-serif" font-size="13" fill="#dc2626">THE PROBLEM — procedure failures, not intelligence failures</text>
  <g filter="url(#shadow)">
    <rect x="40" y="145" width="250" height="72" rx="12" fill="#fee2e2" stroke="#dc2626" stroke-width="2"/>
    <text x="165.0" y="173.0" text-anchor="middle" font-family="Inter,Segoe UI,sans-serif" font-size="14" fill="#312e81">Happy-path code</text><text x="165.0" y="191.0" text-anchor="middle" font-family="Inter,Segoe UI,sans-serif" font-size="14" fill="#312e81">500s in production</text>
  </g>
  <g filter="url(#shadow)">
    <rect x="310" y="145" width="250" height="72" rx="12" fill="#fee2e2" stroke="#dc2626" stroke-width="2"/>
    <text x="435.0" y="173.0" text-anchor="middle" font-family="Inter,Segoe UI,sans-serif" font-size="14" fill="#312e81">Research from</text><text x="435.0" y="191.0" text-anchor="middle" font-family="Inter,Segoe UI,sans-serif" font-size="14" fill="#312e81">memory, not sources</text>
  </g>
  <g filter="url(#shadow)">
    <rect x="580" y="145" width="250" height="72" rx="12" fill="#fee2e2" stroke="#dc2626" stroke-width="2"/>
    <text x="705.0" y="173.0" text-anchor="middle" font-family="Inter,Segoe UI,sans-serif" font-size="14" fill="#312e81">Session 2 loses</text><text x="705.0" y="191.0" text-anchor="middle" font-family="Inter,Segoe UI,sans-serif" font-size="14" fill="#312e81">the thread</text>
  </g>
  <line x1="460" y1="230" x2="460" y2="265" stroke="#4f46e5" stroke-width="2.5" marker-end="url(#arrowhead)"/>
  <defs><marker id="arrowhead" markerWidth="8" markerHeight="8" refX="6" refY="3" orient="auto"><polygon points="0 0, 8 3, 0 6" fill="#4f46e5"/></marker></defs>
  <g filter="url(#shadow)">
    <rect x="280" y="275" width="360" height="52" rx="12" fill="#eef2ff" stroke="#4f46e5" stroke-width="2"/>
    <text x="460.0" y="301.0" text-anchor="middle" font-family="Inter,Segoe UI,sans-serif" font-size="15" fill="#312e81">Fable Mode = staged discipline + Proof Blocks</text>
  </g><text x="40" y="360" font-family="Inter,Segoe UI,sans-serif" font-size="13" fill="#4f46e5">THE FABLE LOOP</text>
  <g filter="url(#shadow)">
    <rect x="40" y="378" width="190" height="68" rx="12" fill="#ffedd5" stroke="#c2410c" stroke-width="2"/>
    <text x="135.0" y="412.0" text-anchor="middle" font-family="Inter,Segoe UI,sans-serif" font-size="14" fill="#312e81">1  Stage map</text>
  </g>
  <g filter="url(#shadow)">
    <rect x="250" y="378" width="190" height="68" rx="12" fill="#eef2ff" stroke="#4f46e5" stroke-width="2"/>
    <text x="345.0" y="412.0" text-anchor="middle" font-family="Inter,Segoe UI,sans-serif" font-size="14" fill="#312e81">2  Delegate</text>
  </g>
  <g filter="url(#shadow)">
    <rect x="460" y="378" width="190" height="68" rx="12" fill="#d1fae5" stroke="#059669" stroke-width="2"/>
    <text x="555.0" y="412.0" text-anchor="middle" font-family="Inter,Segoe UI,sans-serif" font-size="14" fill="#312e81">3  Proof check</text>
  </g>
  <g filter="url(#shadow)">
    <rect x="670" y="378" width="190" height="68" rx="12" fill="#ede9fe" stroke="#7c3aed" stroke-width="2"/>
    <text x="765.0" y="412.0" text-anchor="middle" font-family="Inter,Segoe UI,sans-serif" font-size="14" fill="#312e81">4  Review</text>
  </g>
  <line x1="230" y1="412" x2="250" y2="412" stroke="#4f46e5" stroke-width="2.5" marker-end="url(#arrowhead)"/>
  <defs><marker id="arrowhead" markerWidth="8" markerHeight="8" refX="6" refY="3" orient="auto"><polygon points="0 0, 8 3, 0 6" fill="#4f46e5"/></marker></defs>
  <line x1="440" y1="412" x2="460" y2="412" stroke="#4f46e5" stroke-width="2.5" marker-end="url(#arrowhead)"/>
  <defs><marker id="arrowhead" markerWidth="8" markerHeight="8" refX="6" refY="3" orient="auto"><polygon points="0 0, 8 3, 0 6" fill="#4f46e5"/></marker></defs>
  <line x1="650" y1="412" x2="670" y2="412" stroke="#4f46e5" stroke-width="2.5" marker-end="url(#arrowhead)"/>
  <defs><marker id="arrowhead" markerWidth="8" markerHeight="8" refX="6" refY="3" orient="auto"><polygon points="0 0, 8 3, 0 6" fill="#4f46e5"/></marker></defs>
  <line x1="460" y1="456" x2="460" y2="490" stroke="#4f46e5" stroke-width="2.5" marker-end="url(#arrowhead)"/>
  <defs><marker id="arrowhead" markerWidth="8" markerHeight="8" refX="6" refY="3" orient="auto"><polygon points="0 0, 8 3, 0 6" fill="#4f46e5"/></marker></defs>
  <g filter="url(#shadow)">
    <rect x="300" y="500" width="320" height="58" rx="12" fill="#d1fae5" stroke="#059669" stroke-width="2"/>
    <text x="460.0" y="529.0" text-anchor="middle" font-family="Inter,Segoe UI,sans-serif" font-size="14" fill="#312e81">Deliver with evidence + summary footer</text>
  </g><text x="40" y="590" font-family="Inter,Segoe UI,sans-serif" font-size="13" fill="#64748b">Built for: Engineering  ·  AI power users  ·  Research  ·  Data  ·  PMs</text></svg>