<svg xmlns="http://www.w3.org/2000/svg" viewBox="0 0 920 560" width="920" height="560">
  <defs>
    <filter id="shadow" x="-5%" y="-5%" width="110%" height="115%">
      <feDropShadow dx="0" dy="2" stdDeviation="4" flood-color="#312e8120"/>
    </filter>
    <linearGradient id="heroGrad" x1="0%" y1="0%" x2="100%" y2="0%">
      <stop offset="0%" stop-color="#eef2ff"/>
      <stop offset="100%" stop-color="#ede9fe"/>
    </linearGradient>
  </defs>
  <rect width="100%" height="100%" fill="#ffffff"/><text x="40" y="42" font-family="Inter,Segoe UI,sans-serif" font-size="28" font-weight="700" fill="#312e81">Skill Architecture</text><text x="40" y="70" font-family="Inter,Segoe UI,sans-serif" font-size="16" fill="#4f46e5">Master skill + model-pinned variants (full loop inlined)</text>
  <g filter="url(#shadow)">
    <rect x="390" y="100" width="140" height="50" rx="12" fill="#ffedd5" stroke="#c2410c" stroke-width="2"/>
    <text x="460.0" y="125.0" text-anchor="middle" font-family="Inter,Segoe UI,sans-serif" font-size="14" fill="#312e81">User task</text>
  </g>
  <g filter="url(#shadow)">
    <rect x="40" y="190" width="170" height="54" rx="12" fill="#eef2ff" stroke="#4f46e5" stroke-width="2"/>
    <text x="125.0" y="217.0" text-anchor="middle" font-family="Inter,Segoe UI,sans-serif" font-size="14" fill="#312e81">Skill loader</text>
  </g>
  <g filter="url(#shadow)">
    <rect x="240" y="190" width="170" height="54" rx="12" fill="#ede9fe" stroke="#7c3aed" stroke-width="2"/>
    <text x="325.0" y="217.0" text-anchor="middle" font-family="Inter,Segoe UI,sans-serif" font-size="14" fill="#312e81">Host agent</text>
  </g>
  <g filter="url(#shadow)">
    <rect x="460" y="180" width="220" height="74" rx="12" fill="#d1fae5" stroke="#059669" stroke-width="2"/>
    <text x="570.0" y="209.0" text-anchor="middle" font-family="Inter,Segoe UI,sans-serif" font-size="14" fill="#312e81">fable-mode/SKILL.md</text><text x="570.0" y="227.0" text-anchor="middle" font-family="Inter,Segoe UI,sans-serif" font-size="14" fill="#312e81">MASTER</text>
  </g>
  <line x1="460" y1="125" x2="400" y2="190" stroke="#4f46e5" stroke-width="2.5" marker-end="url(#arrowhead)"/>
  <defs><marker id="arrowhead" markerWidth="8" markerHeight="8" refX="6" refY="3" orient="auto"><polygon points="0 0, 8 3, 0 6" fill="#4f46e5"/></marker></defs>
  <line x1="210" y1="217" x2="240" y2="217" stroke="#4f46e5" stroke-width="2.5" marker-end="url(#arrowhead)"/>
  <defs><marker id="arrowhead" markerWidth="8" markerHeight="8" refX="6" refY="3" orient="auto"><polygon points="0 0, 8 3, 0 6" fill="#4f46e5"/></marker></defs>
  <line x1="410" y1="217" x2="460" y2="217" stroke="#4f46e5" stroke-width="2.5" marker-end="url(#arrowhead)"/>
  <defs><marker id="arrowhead" markerWidth="8" markerHeight="8" refX="6" refY="3" orient="auto"><polygon points="0 0, 8 3, 0 6" fill="#4f46e5"/></marker></defs><text x="40" y="290" font-family="Inter,Segoe UI,sans-serif" font-size="13" fill="#64748b">Variants — pass complete loop to subagent</text>
  <g filter="url(#shadow)">
    <rect x="40" y="310" width="250" height="62" rx="12" fill="#eef2ff" stroke="#4f46e5" stroke-width="2"/>
    <text x="165.0" y="341.0" text-anchor="middle" font-family="Inter,Segoe UI,sans-serif" font-size="15" fill="#312e81">fable-sonnet</text>
  </g>
  <g filter="url(#shadow)">
    <rect x="310" y="310" width="250" height="62" rx="12" fill="#eef2ff" stroke="#4f46e5" stroke-width="2"/>
    <text x="435.0" y="341.0" text-anchor="middle" font-family="Inter,Segoe UI,sans-serif" font-size="15" fill="#312e81">fable-haiku</text>
  </g>
  <g filter="url(#shadow)">
    <rect x="580" y="310" width="250" height="62" rx="12" fill="#fef3c7" stroke="#d97706" stroke-width="2"/>
    <text x="705.0" y="341.0" text-anchor="middle" font-family="Inter,Segoe UI,sans-serif" font-size="15" fill="#312e81">fable-fast (alias)</text>
  </g>
  <line x1="570" y1="254" x2="165" y2="310" stroke="#64748b" stroke-width="2.5" marker-end="url(#arrowhead)"/>
  <defs><marker id="arrowhead" markerWidth="8" markerHeight="8" refX="6" refY="3" orient="auto"><polygon points="0 0, 8 3, 0 6" fill="#64748b"/></marker></defs>
  <line x1="570" y1="254" x2="435" y2="310" stroke="#64748b" stroke-width="2.5" marker-end="url(#arrowhead)"/>
  <defs><marker id="arrowhead" markerWidth="8" markerHeight="8" refX="6" refY="3" orient="auto"><polygon points="0 0, 8 3, 0 6" fill="#64748b"/></marker></defs>
  <line x1="570" y1="254" x2="705" y2="310" stroke="#64748b" stroke-width="2.5" marker-end="url(#arrowhead)"/>
  <defs><marker id="arrowhead" markerWidth="8" markerHeight="8" refX="6" refY="3" orient="auto"><polygon points="0 0, 8 3, 0 6" fill="#64748b"/></marker></defs>
  <g filter="url(#shadow)">
    <rect x="290" y="430" width="340" height="58" rx="12" fill="#d1fae5" stroke="#059669" stroke-width="2"/>
    <text x="460.0" y="459.0" text-anchor="middle" font-family="Inter,Segoe UI,sans-serif" font-size="14" fill="#312e81">Output + Proof Blocks + summary</text>
  </g>
  <line x1="165" y1="372" x2="340" y2="430" stroke="#4f46e5" stroke-width="2.5" marker-end="url(#arrowhead)"/>
  <defs><marker id="arrowhead" markerWidth="8" markerHeight="8" refX="6" refY="3" orient="auto"><polygon points="0 0, 8 3, 0 6" fill="#4f46e5"/></marker></defs>
  <line x1="435" y1="372" x2="400" y2="430" stroke="#4f46e5" stroke-width="2.5" marker-end="url(#arrowhead)"/>
  <defs><marker id="arrowhead" markerWidth="8" markerHeight="8" refX="6" refY="3" orient="auto"><polygon points="0 0, 8 3, 0 6" fill="#4f46e5"/></marker></defs>
  <line x1="705" y1="372" x2="460" y2="430" stroke="#4f46e5" stroke-width="2.5" marker-end="url(#arrowhead)"/>
  <defs><marker id="arrowhead" markerWidth="8" markerHeight="8" refX="6" refY="3" orient="auto"><polygon points="0 0, 8 3, 0 6" fill="#4f46e5"/></marker></defs><text x="40" y="520" font-family="Inter,Segoe UI,sans-serif" font-size="13" fill="#64748b">Install: cp -R fable-mode/fable-mode ~/.cursor/skills/fable-mode</text></svg>