<svg xmlns="http://www.w3.org/2000/svg" viewBox="0 0 920 420" width="920" height="420">
  <defs>
    <filter id="shadow" x="-5%" y="-5%" width="110%" height="115%">
      <feDropShadow dx="0" dy="2" stdDeviation="4" flood-color="#312e8120"/>
    </filter>
    <linearGradient id="heroGrad" x1="0%" y1="0%" x2="100%" y2="0%">
      <stop offset="0%" stop-color="#eef2ff"/>
      <stop offset="100%" stop-color="#ede9fe"/>
    </linearGradient>
  </defs>
  <rect width="100%" height="100%" fill="#ffffff"/><text x="40" y="42" font-family="Inter,Segoe UI,sans-serif" font-size="28" font-weight="700" fill="#312e81">Before / After</text><text x="40" y="70" font-family="Inter,Segoe UI,sans-serif" font-size="16" fill="#4f46e5">Same task — different procedure</text><text x="60" y="110" font-family="Inter,Segoe UI,sans-serif" font-size="15" fill="#dc2626">ONE-SHOT</text>
  <g filter="url(#shadow)">
    <rect x="40" y="125" width="300" height="50" rx="12" fill="#fee2e2" stroke="#dc2626" stroke-width="2"/>
    <text x="190.0" y="150.0" text-anchor="middle" font-family="Inter,Segoe UI,sans-serif" font-size="14" fill="#312e81">Write handler</text>
  </g>
  <g filter="url(#shadow)">
    <rect x="40" y="190" width="300" height="50" rx="12" fill="#fee2e2" stroke="#dc2626" stroke-width="2"/>
    <text x="190.0" y="215.0" text-anchor="middle" font-family="Inter,Segoe UI,sans-serif" font-size="14" fill="#312e81">Looks correct</text>
  </g>
  <line x1="190" y1="175" x2="190" y2="190" stroke="#dc2626" stroke-width="2.5" marker-end="url(#arrowhead)"/>
  <defs><marker id="arrowhead" markerWidth="8" markerHeight="8" refX="6" refY="3" orient="auto"><polygon points="0 0, 8 3, 0 6" fill="#dc2626"/></marker></defs><text x="40" y="270" font-family="Inter,Segoe UI,sans-serif" font-size="14" fill="#dc2626">Ships → 500 on unauthenticated request</text><text x="440" y="110" font-family="Inter,Segoe UI,sans-serif" font-size="15" fill="#059669">FABLE MODE</text>
  <g filter="url(#shadow)">
    <rect x="400" y="125" width="140" height="48" rx="12" fill="#ffedd5" stroke="#c2410c" stroke-width="2"/>
    <text x="470.0" y="149.0" text-anchor="middle" font-family="Inter,Segoe UI,sans-serif" font-size="13" fill="#312e81">Stage map</text>
  </g>
  <g filter="url(#shadow)">
    <rect x="560" y="125" width="140" height="48" rx="12" fill="#eef2ff" stroke="#4f46e5" stroke-width="2"/>
    <text x="630.0" y="149.0" text-anchor="middle" font-family="Inter,Segoe UI,sans-serif" font-size="13" fill="#312e81">Tests first</text>
  </g>
  <g filter="url(#shadow)">
    <rect x="400" y="190" width="300" height="50" rx="12" fill="#fef3c7" stroke="#d97706" stroke-width="2"/>
    <text x="550.0" y="215.0" text-anchor="middle" font-family="Inter,Segoe UI,sans-serif" font-size="14" fill="#312e81">Proof FAIL → null guard</text>
  </g>
  <g filter="url(#shadow)">
    <rect x="400" y="255" width="300" height="50" rx="12" fill="#d1fae5" stroke="#059669" stroke-width="2"/>
    <text x="550.0" y="280.0" text-anchor="middle" font-family="Inter,Segoe UI,sans-serif" font-size="14" fill="#312e81">Proof PASS → ship</text>
  </g>
  <line x1="540" y1="173" x2="540" y2="190" stroke="#059669" stroke-width="2.5" marker-end="url(#arrowhead)"/>
  <defs><marker id="arrowhead" markerWidth="8" markerHeight="8" refX="6" refY="3" orient="auto"><polygon points="0 0, 8 3, 0 6" fill="#059669"/></marker></defs>
  <line x1="550" y1="240" x2="550" y2="255" stroke="#059669" stroke-width="2.5" marker-end="url(#arrowhead)"/>
  <defs><marker id="arrowhead" markerWidth="8" markerHeight="8" refX="6" refY="3" orient="auto"><polygon points="0 0, 8 3, 0 6" fill="#059669"/></marker></defs>
  <g filter="url(#shadow)">
    <rect x="180" y="320" width="560" height="56" rx="12" fill="#eef2ff" stroke="#4f46e5" stroke-width="2"/>
    <text x="460.0" y="348.0" text-anchor="middle" font-family="Inter,Segoe UI,sans-serif" font-size="15" fill="#312e81">Measured: 1 pass / 1 fail  →  3 pass / 0 fail</text>
  </g></svg>